<mxfile host="Electron" modified="2024-05-19T00:12:31.853Z" agent="Mozilla/5.0 (Windows NT 10.0; Win64; x64) AppleWebKit/537.36 (KHTML, like Gecko) draw.io/24.4.0 Chrome/120.0.6099.109 Electron/28.1.0 Safari/537.36" etag="1xnMkPFvW8JGHF-E1d_f" version="24.4.0" type="device">
  <diagram name="Page-1" id="2YBvvXClWsGukQMizWep">
    <mxGraphModel dx="472" dy="820" grid="1" gridSize="10" guides="1" tooltips="1" connect="1" arrows="1" fold="1" page="1" pageScale="1" pageWidth="850" pageHeight="1100" math="0" shadow="0">
      <root>
        <mxCell id="0" />
        <mxCell id="1" parent="0" />
        <mxCell id="Yi4tawwr3cMeWZQa_mhw-41" style="edgeStyle=orthogonalEdgeStyle;rounded=0;orthogonalLoop=1;jettySize=auto;html=1;curved=0;" parent="1" source="Yi4tawwr3cMeWZQa_mhw-36" target="Yi4tawwr3cMeWZQa_mhw-38" edge="1">
          <mxGeometry relative="1" as="geometry">
            <Array as="points">
              <mxPoint x="120" y="170" />
              <mxPoint x="120" y="170" />
            </Array>
          </mxGeometry>
        </mxCell>
        <mxCell id="Yi4tawwr3cMeWZQa_mhw-42" value="selecciona Buscar&lt;br&gt;expediente" style="edgeLabel;html=1;align=center;verticalAlign=middle;resizable=0;points=[];" parent="Yi4tawwr3cMeWZQa_mhw-41" vertex="1" connectable="0">
          <mxGeometry x="0.0226" relative="1" as="geometry">
            <mxPoint x="1" as="offset" />
          </mxGeometry>
        </mxCell>
        <mxCell id="Yi4tawwr3cMeWZQa_mhw-45" style="edgeStyle=orthogonalEdgeStyle;rounded=0;orthogonalLoop=1;jettySize=auto;html=1;curved=0;" parent="1" source="Yi4tawwr3cMeWZQa_mhw-36" target="Yi4tawwr3cMeWZQa_mhw-38" edge="1">
          <mxGeometry relative="1" as="geometry">
            <Array as="points">
              <mxPoint x="130" y="230" />
              <mxPoint x="130" y="230" />
            </Array>
          </mxGeometry>
        </mxCell>
        <mxCell id="Yi4tawwr3cMeWZQa_mhw-46" value="ingresa datos" style="edgeLabel;html=1;align=center;verticalAlign=middle;resizable=0;points=[];" parent="Yi4tawwr3cMeWZQa_mhw-45" vertex="1" connectable="0">
          <mxGeometry x="0.0192" y="3" relative="1" as="geometry">
            <mxPoint as="offset" />
          </mxGeometry>
        </mxCell>
        <mxCell id="u4CqR4INVGYrC7Xj4Ri9-3" style="edgeStyle=orthogonalEdgeStyle;rounded=0;orthogonalLoop=1;jettySize=auto;html=1;curved=0;" edge="1" parent="1" source="Yi4tawwr3cMeWZQa_mhw-36" target="Yi4tawwr3cMeWZQa_mhw-38">
          <mxGeometry relative="1" as="geometry">
            <Array as="points">
              <mxPoint x="130" y="360" />
              <mxPoint x="130" y="360" />
            </Array>
          </mxGeometry>
        </mxCell>
        <mxCell id="u4CqR4INVGYrC7Xj4Ri9-4" value="solicita Modificar&lt;br&gt;expediente" style="edgeLabel;html=1;align=center;verticalAlign=middle;resizable=0;points=[];" vertex="1" connectable="0" parent="u4CqR4INVGYrC7Xj4Ri9-3">
          <mxGeometry x="0.0192" y="1" relative="1" as="geometry">
            <mxPoint as="offset" />
          </mxGeometry>
        </mxCell>
        <mxCell id="u4CqR4INVGYrC7Xj4Ri9-13" style="edgeStyle=orthogonalEdgeStyle;rounded=0;orthogonalLoop=1;jettySize=auto;html=1;curved=0;" edge="1" parent="1" source="Yi4tawwr3cMeWZQa_mhw-36" target="Yi4tawwr3cMeWZQa_mhw-38">
          <mxGeometry relative="1" as="geometry">
            <Array as="points">
              <mxPoint x="130" y="420" />
              <mxPoint x="130" y="420" />
            </Array>
          </mxGeometry>
        </mxCell>
        <mxCell id="u4CqR4INVGYrC7Xj4Ri9-14" value="ingresa datos" style="edgeLabel;html=1;align=center;verticalAlign=middle;resizable=0;points=[];" vertex="1" connectable="0" parent="u4CqR4INVGYrC7Xj4Ri9-13">
          <mxGeometry x="-0.0115" y="-1" relative="1" as="geometry">
            <mxPoint x="1" as="offset" />
          </mxGeometry>
        </mxCell>
        <mxCell id="Yi4tawwr3cMeWZQa_mhw-36" value="" style="shape=umlLifeline;perimeter=lifelinePerimeter;whiteSpace=wrap;html=1;container=1;dropTarget=0;collapsible=0;recursiveResize=0;outlineConnect=0;portConstraint=eastwest;newEdgeStyle={&quot;curved&quot;:0,&quot;rounded&quot;:0};participant=umlActor;" parent="1" vertex="1">
          <mxGeometry x="20" y="80" width="20" height="480" as="geometry" />
        </mxCell>
        <mxCell id="Yi4tawwr3cMeWZQa_mhw-37" value="" style="shape=umlLifeline;perimeter=lifelinePerimeter;whiteSpace=wrap;html=1;container=1;dropTarget=0;collapsible=0;recursiveResize=0;outlineConnect=0;portConstraint=eastwest;newEdgeStyle={&quot;curved&quot;:0,&quot;rounded&quot;:0};participant=umlBoundary;" parent="1" vertex="1">
          <mxGeometry x="140" y="80" width="50" height="480" as="geometry" />
        </mxCell>
        <mxCell id="Yi4tawwr3cMeWZQa_mhw-38" value="" style="html=1;points=[[0,0,0,0,5],[0,1,0,0,-5],[1,0,0,0,5],[1,1,0,0,-5]];perimeter=orthogonalPerimeter;outlineConnect=0;targetShapes=umlLifeline;portConstraint=eastwest;newEdgeStyle={&quot;curved&quot;:0,&quot;rounded&quot;:0};" parent="Yi4tawwr3cMeWZQa_mhw-37" vertex="1">
          <mxGeometry x="20" y="80" width="10" height="380" as="geometry" />
        </mxCell>
        <mxCell id="Yi4tawwr3cMeWZQa_mhw-39" value="" style="shape=umlLifeline;perimeter=lifelinePerimeter;whiteSpace=wrap;html=1;container=1;dropTarget=0;collapsible=0;recursiveResize=0;outlineConnect=0;portConstraint=eastwest;newEdgeStyle={&quot;curved&quot;:0,&quot;rounded&quot;:0};participant=umlEntity;" parent="1" vertex="1">
          <mxGeometry x="300" y="80" width="40" height="480" as="geometry" />
        </mxCell>
        <mxCell id="Yi4tawwr3cMeWZQa_mhw-40" value="" style="html=1;points=[[0,0,0,0,5],[0,1,0,0,-5],[1,0,0,0,5],[1,1,0,0,-5]];perimeter=orthogonalPerimeter;outlineConnect=0;targetShapes=umlLifeline;portConstraint=eastwest;newEdgeStyle={&quot;curved&quot;:0,&quot;rounded&quot;:0};" parent="Yi4tawwr3cMeWZQa_mhw-39" vertex="1">
          <mxGeometry x="15" y="150" width="10" height="90" as="geometry" />
        </mxCell>
        <mxCell id="u4CqR4INVGYrC7Xj4Ri9-16" value="" style="html=1;points=[[0,0,0,0,5],[0,1,0,0,-5],[1,0,0,0,5],[1,1,0,0,-5]];perimeter=orthogonalPerimeter;outlineConnect=0;targetShapes=umlLifeline;portConstraint=eastwest;newEdgeStyle={&quot;curved&quot;:0,&quot;rounded&quot;:0};" vertex="1" parent="Yi4tawwr3cMeWZQa_mhw-39">
          <mxGeometry x="15" y="380" width="10" height="80" as="geometry" />
        </mxCell>
        <mxCell id="Yi4tawwr3cMeWZQa_mhw-43" style="edgeStyle=orthogonalEdgeStyle;rounded=0;orthogonalLoop=1;jettySize=auto;html=1;curved=0;" parent="1" source="Yi4tawwr3cMeWZQa_mhw-38" target="Yi4tawwr3cMeWZQa_mhw-36" edge="1">
          <mxGeometry relative="1" as="geometry">
            <Array as="points">
              <mxPoint x="70" y="200" />
              <mxPoint x="70" y="200" />
            </Array>
          </mxGeometry>
        </mxCell>
        <mxCell id="Yi4tawwr3cMeWZQa_mhw-44" value="solicita datos" style="edgeLabel;html=1;align=center;verticalAlign=middle;resizable=0;points=[];" parent="Yi4tawwr3cMeWZQa_mhw-43" vertex="1" connectable="0">
          <mxGeometry x="-0.0498" y="-1" relative="1" as="geometry">
            <mxPoint as="offset" />
          </mxGeometry>
        </mxCell>
        <mxCell id="Yi4tawwr3cMeWZQa_mhw-47" style="edgeStyle=orthogonalEdgeStyle;rounded=0;orthogonalLoop=1;jettySize=auto;html=1;curved=0;" parent="1" source="Yi4tawwr3cMeWZQa_mhw-38" target="Yi4tawwr3cMeWZQa_mhw-40" edge="1">
          <mxGeometry relative="1" as="geometry">
            <Array as="points">
              <mxPoint x="280" y="250" />
              <mxPoint x="280" y="250" />
            </Array>
          </mxGeometry>
        </mxCell>
        <mxCell id="Yi4tawwr3cMeWZQa_mhw-54" value="datos expediente" style="edgeLabel;html=1;align=center;verticalAlign=middle;resizable=0;points=[];" parent="Yi4tawwr3cMeWZQa_mhw-47" vertex="1" connectable="0">
          <mxGeometry x="-0.0065" relative="1" as="geometry">
            <mxPoint as="offset" />
          </mxGeometry>
        </mxCell>
        <mxCell id="Yi4tawwr3cMeWZQa_mhw-48" style="edgeStyle=orthogonalEdgeStyle;rounded=0;orthogonalLoop=1;jettySize=auto;html=1;curved=0;dashed=1;" parent="1" source="Yi4tawwr3cMeWZQa_mhw-40" target="Yi4tawwr3cMeWZQa_mhw-38" edge="1">
          <mxGeometry relative="1" as="geometry">
            <Array as="points">
              <mxPoint x="280" y="310" />
              <mxPoint x="280" y="310" />
            </Array>
          </mxGeometry>
        </mxCell>
        <mxCell id="Yi4tawwr3cMeWZQa_mhw-49" value="devuelve expediente" style="edgeLabel;html=1;align=center;verticalAlign=middle;resizable=0;points=[];" parent="Yi4tawwr3cMeWZQa_mhw-48" vertex="1" connectable="0">
          <mxGeometry x="0.0065" relative="1" as="geometry">
            <mxPoint as="offset" />
          </mxGeometry>
        </mxCell>
        <mxCell id="Yi4tawwr3cMeWZQa_mhw-50" style="edgeStyle=orthogonalEdgeStyle;rounded=0;orthogonalLoop=1;jettySize=auto;html=1;curved=0;dashed=1;" parent="1" source="Yi4tawwr3cMeWZQa_mhw-38" target="Yi4tawwr3cMeWZQa_mhw-36" edge="1">
          <mxGeometry relative="1" as="geometry">
            <Array as="points">
              <mxPoint x="70" y="330" />
              <mxPoint x="70" y="330" />
            </Array>
          </mxGeometry>
        </mxCell>
        <mxCell id="Yi4tawwr3cMeWZQa_mhw-51" value="muestra expediente" style="edgeLabel;html=1;align=center;verticalAlign=middle;resizable=0;points=[];" parent="Yi4tawwr3cMeWZQa_mhw-50" vertex="1" connectable="0">
          <mxGeometry x="0.0421" y="-4" relative="1" as="geometry">
            <mxPoint as="offset" />
          </mxGeometry>
        </mxCell>
        <mxCell id="u4CqR4INVGYrC7Xj4Ri9-5" value="" style="shape=umlLifeline;perimeter=lifelinePerimeter;whiteSpace=wrap;html=1;container=1;dropTarget=0;collapsible=0;recursiveResize=0;outlineConnect=0;portConstraint=eastwest;newEdgeStyle={&quot;curved&quot;:0,&quot;rounded&quot;:0};participant=umlControl;" vertex="1" parent="1">
          <mxGeometry x="410" y="80" width="40" height="480" as="geometry" />
        </mxCell>
        <mxCell id="u4CqR4INVGYrC7Xj4Ri9-6" value="" style="html=1;points=[[0,0,0,0,5],[0,1,0,0,-5],[1,0,0,0,5],[1,1,0,0,-5]];perimeter=orthogonalPerimeter;outlineConnect=0;targetShapes=umlLifeline;portConstraint=eastwest;newEdgeStyle={&quot;curved&quot;:0,&quot;rounded&quot;:0};" vertex="1" parent="u4CqR4INVGYrC7Xj4Ri9-5">
          <mxGeometry x="15" y="260" width="10" height="160" as="geometry" />
        </mxCell>
        <mxCell id="u4CqR4INVGYrC7Xj4Ri9-7" style="edgeStyle=orthogonalEdgeStyle;rounded=0;orthogonalLoop=1;jettySize=auto;html=1;curved=0;" edge="1" parent="1" source="Yi4tawwr3cMeWZQa_mhw-38" target="u4CqR4INVGYrC7Xj4Ri9-6">
          <mxGeometry relative="1" as="geometry">
            <Array as="points">
              <mxPoint x="360" y="430" />
              <mxPoint x="360" y="430" />
            </Array>
          </mxGeometry>
        </mxCell>
        <mxCell id="u4CqR4INVGYrC7Xj4Ri9-8" value="valida datos" style="edgeLabel;html=1;align=center;verticalAlign=middle;resizable=0;points=[];" vertex="1" connectable="0" parent="u4CqR4INVGYrC7Xj4Ri9-7">
          <mxGeometry x="-0.0039" y="-1" relative="1" as="geometry">
            <mxPoint as="offset" />
          </mxGeometry>
        </mxCell>
        <mxCell id="u4CqR4INVGYrC7Xj4Ri9-9" style="edgeStyle=orthogonalEdgeStyle;rounded=0;orthogonalLoop=1;jettySize=auto;html=1;curved=0;" edge="1" parent="1" source="Yi4tawwr3cMeWZQa_mhw-38" target="Yi4tawwr3cMeWZQa_mhw-36">
          <mxGeometry relative="1" as="geometry">
            <Array as="points">
              <mxPoint x="70" y="390" />
              <mxPoint x="70" y="390" />
            </Array>
            <mxPoint x="170" y="210" as="sourcePoint" />
            <mxPoint x="40" y="210" as="targetPoint" />
          </mxGeometry>
        </mxCell>
        <mxCell id="u4CqR4INVGYrC7Xj4Ri9-10" value="solicita datos" style="edgeLabel;html=1;align=center;verticalAlign=middle;resizable=0;points=[];" vertex="1" connectable="0" parent="u4CqR4INVGYrC7Xj4Ri9-9">
          <mxGeometry x="-0.0498" y="-1" relative="1" as="geometry">
            <mxPoint as="offset" />
          </mxGeometry>
        </mxCell>
        <mxCell id="u4CqR4INVGYrC7Xj4Ri9-17" style="edgeStyle=orthogonalEdgeStyle;rounded=0;orthogonalLoop=1;jettySize=auto;html=1;curved=0;" edge="1" parent="1" source="u4CqR4INVGYrC7Xj4Ri9-6" target="u4CqR4INVGYrC7Xj4Ri9-16">
          <mxGeometry relative="1" as="geometry">
            <Array as="points">
              <mxPoint x="350" y="470" />
              <mxPoint x="350" y="470" />
            </Array>
          </mxGeometry>
        </mxCell>
        <mxCell id="u4CqR4INVGYrC7Xj4Ri9-18" value="confirma datos" style="edgeLabel;html=1;align=center;verticalAlign=middle;resizable=0;points=[];" vertex="1" connectable="0" parent="u4CqR4INVGYrC7Xj4Ri9-17">
          <mxGeometry relative="1" as="geometry">
            <mxPoint as="offset" />
          </mxGeometry>
        </mxCell>
        <mxCell id="u4CqR4INVGYrC7Xj4Ri9-19" style="edgeStyle=orthogonalEdgeStyle;rounded=0;orthogonalLoop=1;jettySize=auto;html=1;curved=0;" edge="1" parent="1" source="u4CqR4INVGYrC7Xj4Ri9-16" target="Yi4tawwr3cMeWZQa_mhw-38">
          <mxGeometry relative="1" as="geometry">
            <Array as="points">
              <mxPoint x="200" y="500" />
              <mxPoint x="200" y="500" />
            </Array>
          </mxGeometry>
        </mxCell>
        <mxCell id="u4CqR4INVGYrC7Xj4Ri9-20" value="devuelve expediente&lt;br&gt;modificado" style="edgeLabel;html=1;align=center;verticalAlign=middle;resizable=0;points=[];" vertex="1" connectable="0" parent="u4CqR4INVGYrC7Xj4Ri9-19">
          <mxGeometry x="0.0069" y="-1" relative="1" as="geometry">
            <mxPoint as="offset" />
          </mxGeometry>
        </mxCell>
        <mxCell id="u4CqR4INVGYrC7Xj4Ri9-21" style="edgeStyle=orthogonalEdgeStyle;rounded=0;orthogonalLoop=1;jettySize=auto;html=1;curved=0;" edge="1" parent="1" source="Yi4tawwr3cMeWZQa_mhw-38" target="Yi4tawwr3cMeWZQa_mhw-36">
          <mxGeometry relative="1" as="geometry">
            <Array as="points">
              <mxPoint x="130" y="520" />
              <mxPoint x="130" y="520" />
            </Array>
          </mxGeometry>
        </mxCell>
        <mxCell id="u4CqR4INVGYrC7Xj4Ri9-22" value="muestra expediente&lt;br&gt;modificado" style="edgeLabel;html=1;align=center;verticalAlign=middle;resizable=0;points=[];" vertex="1" connectable="0" parent="u4CqR4INVGYrC7Xj4Ri9-21">
          <mxGeometry x="-0.0038" relative="1" as="geometry">
            <mxPoint as="offset" />
          </mxGeometry>
        </mxCell>
      </root>
    </mxGraphModel>
  </diagram>
</mxfile>
